<svg width="40" height="35" viewBox="0 0 40 35" fill="none" xmlns="http://www.w3.org/2000/svg" color="#40405A">
    <path fill="currentColor" d="M0.5 19.5C0.5 9.18908 7.91907 0 20 0C31.9972 0 39.5 10.0968 39.5 20.5C39.5 23.0967 39.2542 25.3145 38.4795 27.2799C37.7175 29.2132 36.4065 30.9949 34.1187 32.6559C32.0121 34.1855 27.9639 35.048 24.4495 34.2692C22.7303 33.8882 21.2547 33.1382 20.2169 32.002C19.1996 30.8882 18.5 29.2928 18.5 27C18.5 24.6475 19.1106 23.1536 19.8901 22.1792C20.6792 21.1928 21.7558 20.5965 22.925 20.251C24.1014 19.9035 25.3092 19.8299 26.2472 19.8512C26.3343 19.8532 26.4187 19.8559 26.5 19.8594V28H29.5V17.2481C29.5 17.2481 28 16.8519 26.3153 16.8519C24.6307 16.8519 23.6486 16.909 22.075 17.374C20.4942 17.841 18.8208 18.7134 17.5474 20.3051C16.2644 21.9089 15.5 24.1025 15.5 27C15.5 28.0563 15.6181 29.0341 15.8417 29.9334C13.2068 31.3958 11.0068 31.8747 9.21404 31.7681C7.3467 31.657 5.79092 30.9039 4.5164 29.7296C1.9053 27.3239 0.5 23.1485 0.5 19.5Z"/>
</svg>
